<?xml version="1.0" encoding="utf-8" ?>
<svg baseProfile="full" height="57.5mm" version="1.1" viewBox="0,0,306.20000000000005,57.5" width="306.20000000000005mm" xmlns="http://www.w3.org/2000/svg" xmlns:ev="http://www.w3.org/2001/xml-events" xmlns:xlink="http://www.w3.org/1999/xlink"><defs /><rect fill="#FFFFFF" height="57.5" width="306.20000000000005" x="0" y="0" /><text fill="#000000" style="font-size:6px; font-family:Arial; font-weight:bold;" x="10" y="10" /><text fill="#000000" style="font-size:3px; font-family:Arial;" x="10" y="14.4">2024: 460 hours</text><text fill="#000000" style="font-size:2.5px; font-family:Arial" x="10" y="18.3">Jan</text><rect fill="#EBEDF0" height="4" rx="1" ry="1" width="4" x="10" y="19.7"><title>2024-01-01</title></rect><rect fill="#EBEDF0" height="4" rx="1" ry="1" width="4" x="10" y="25.1"><title>2024-01-02</title></rect><rect fill="#EBEDF0" height="4" rx="1" ry="1" width="4" x="10" y="30.5"><title>2024-01-03</title></rect><rect fill="#EBEDF0" height="4" rx="1" ry="1" width="4" x="10" y="35.9"><title>2024-01-04</title></rect><rect fill="#EBEDF0" height="4" rx="1" ry="1" width="4" x="10" y="41.300000000000004"><title>2024-01-05</title></rect><rect fill="#EBEDF0" height="4" rx="1" ry="1" width="4" x="10" y="46.699999999999996"><title>2024-01-06</title></rect><rect fill="#EBEDF0" height="4" rx="1" ry="1" width="4" x="10" y="52.1"><title>2024-01-07</title></rect><rect fill="#EBEDF0" height="4" rx="1" ry="1" width="4" x="15.4" y="19.7"><title>2024-01-08</title></rect><rect fill="#EBEDF0" height="4" rx="1" ry="1" width="4" x="15.4" y="25.1"><title>2024-01-09</title></rect><rect fill="#EBEDF0" height="4" rx="1" ry="1" width="4" x="15.4" y="30.5"><title>2024-01-10</title></rect><rect fill="#EBEDF0" height="4" rx="1" ry="1" width="4" x="15.4" y="35.9"><title>2024-01-11</title></rect><rect fill="#EBEDF0" height="4" rx="1" ry="1" width="4" x="15.4" y="41.300000000000004"><title>2024-01-12</title></rect><rect fill="#EBEDF0" height="4" rx="1" ry="1" width="4" x="15.4" y="46.699999999999996"><title>2024-01-13</title></rect><rect fill="#EBEDF0" height="4" rx="1" ry="1" width="4" x="15.4" y="52.1"><title>2024-01-14</title></rect><rect fill="#EBEDF0" height="4" rx="1" ry="1" width="4" x="20.8" y="19.7"><title>2024-01-15</title></rect><rect fill="#EBEDF0" height="4" rx="1" ry="1" width="4" x="20.8" y="25.1"><title>2024-01-16</title></rect><rect fill="#EBEDF0" height="4" rx="1" ry="1" width="4" x="20.8" y="30.5"><title>2024-01-17</title></rect><rect fill="#EBEDF0" height="4" rx="1" ry="1" width="4" x="20.8" y="35.9"><title>2024-01-18</title></rect><rect fill="#EBEDF0" height="4" rx="1" ry="1" width="4" x="20.8" y="41.300000000000004"><title>2024-01-19</title></rect><rect fill="#EBEDF0" height="4" rx="1" ry="1" width="4" x="20.8" y="46.699999999999996"><title>2024-01-20</title></rect><rect fill="#EBEDF0" height="4" rx="1" ry="1" width="4" x="20.8" y="52.1"><title>2024-01-21</title></rect><rect fill="#EBEDF0" height="4" rx="1" ry="1" width="4" x="26.200000000000003" y="19.7"><title>2024-01-22</title></rect><rect fill="#EBEDF0" height="4" rx="1" ry="1" width="4" x="26.200000000000003" y="25.1"><title>2024-01-23</title></rect><rect fill="#EBEDF0" height="4" rx="1" ry="1" width="4" x="26.200000000000003" y="30.5"><title>2024-01-24</title></rect><rect fill="#EBEDF0" height="4" rx="1" ry="1" width="4" x="26.200000000000003" y="35.9"><title>2024-01-25</title></rect><rect fill="#EBEDF0" height="4" rx="1" ry="1" width="4" x="26.200000000000003" y="41.300000000000004"><title>2024-01-26</title></rect><rect fill="#EBEDF0" height="4" rx="1" ry="1" width="4" x="26.200000000000003" y="46.699999999999996"><title>2024-01-27</title></rect><rect fill="#EBEDF0" height="4" rx="1" ry="1" width="4" x="26.200000000000003" y="52.1"><title>2024-01-28</title></rect><rect fill="#EBEDF0" height="4" rx="1" ry="1" width="4" x="31.6" y="19.7"><title>2024-01-29</title></rect><rect fill="#EBEDF0" height="4" rx="1" ry="1" width="4" x="31.6" y="25.1"><title>2024-01-30</title></rect><rect fill="#EBEDF0" height="4" rx="1" ry="1" width="4" x="31.6" y="30.5"><title>2024-01-31</title></rect><rect fill="#EBEDF0" height="4" rx="1" ry="1" width="4" x="31.6" y="35.9"><title>2024-02-01</title></rect><rect fill="#EBEDF0" height="4" rx="1" ry="1" width="4" x="31.6" y="41.300000000000004"><title>2024-02-02</title></rect><rect fill="#EBEDF0" height="4" rx="1" ry="1" width="4" x="31.6" y="46.699999999999996"><title>2024-02-03</title></rect><rect fill="#EBEDF0" height="4" rx="1" ry="1" width="4" x="31.6" y="52.1"><title>2024-02-04</title></rect><text fill="#000000" style="font-size:2.5px; font-family:Arial" x="37.0" y="18.3">Feb</text><rect fill="#EBEDF0" height="4" rx="1" ry="1" width="4" x="37.0" y="19.7"><title>2024-02-05</title></rect><rect fill="#EBEDF0" height="4" rx="1" ry="1" width="4" x="37.0" y="25.1"><title>2024-02-06</title></rect><rect fill="#EBEDF0" height="4" rx="1" ry="1" width="4" x="37.0" y="30.5"><title>2024-02-07</title></rect><rect fill="#EBEDF0" height="4" rx="1" ry="1" width="4" x="37.0" y="35.9"><title>2024-02-08</title></rect><rect fill="#EBEDF0" height="4" rx="1" ry="1" width="4" x="37.0" y="41.300000000000004"><title>2024-02-09</title></rect><rect fill="#EBEDF0" height="4" rx="1" ry="1" width="4" x="37.0" y="46.699999999999996"><title>2024-02-10</title></rect><rect fill="#EBEDF0" height="4" rx="1" ry="1" width="4" x="37.0" y="52.1"><title>2024-02-11</title></rect><rect fill="#EBEDF0" height="4" rx="1" ry="1" width="4" x="42.4" y="19.7"><title>2024-02-12</title></rect><rect fill="#EBEDF0" height="4" rx="1" ry="1" width="4" x="42.4" y="25.1"><title>2024-02-13</title></rect><rect fill="#EBEDF0" height="4" rx="1" ry="1" width="4" x="42.4" y="30.5"><title>2024-02-14</title></rect><rect fill="#EBEDF0" height="4" rx="1" ry="1" width="4" x="42.4" y="35.9"><title>2024-02-15</title></rect><rect fill="#EBEDF0" height="4" rx="1" ry="1" width="4" x="42.4" y="41.300000000000004"><title>2024-02-16</title></rect><rect fill="#EBEDF0" height="4" rx="1" ry="1" width="4" x="42.4" y="46.699999999999996"><title>2024-02-17</title></rect><rect fill="#EBEDF0" height="4" rx="1" ry="1" width="4" x="42.4" y="52.1"><title>2024-02-18</title></rect><rect fill="#EBEDF0" height="4" rx="1" ry="1" width="4" x="47.8" y="19.7"><title>2024-02-19</title></rect><rect fill="#EBEDF0" height="4" rx="1" ry="1" width="4" x="47.8" y="25.1"><title>2024-02-20</title></rect><rect fill="#EBEDF0" height="4" rx="1" ry="1" width="4" x="47.8" y="30.5"><title>2024-02-21</title></rect><rect fill="#EBEDF0" height="4" rx="1" ry="1" width="4" x="47.8" y="35.9"><title>2024-02-22</title></rect><rect fill="#EBEDF0" height="4" rx="1" ry="1" width="4" x="47.8" y="41.300000000000004"><title>2024-02-23</title></rect><rect fill="#EBEDF0" height="4" rx="1" ry="1" width="4" x="47.8" y="46.699999999999996"><title>2024-02-24</title></rect><rect fill="#EBEDF0" height="4" rx="1" ry="1" width="4" x="47.8" y="52.1"><title>2024-02-25</title></rect><rect fill="#EBEDF0" height="4" rx="1" ry="1" width="4" x="53.199999999999996" y="19.7"><title>2024-02-26</title></rect><rect fill="#EBEDF0" height="4" rx="1" ry="1" width="4" x="53.199999999999996" y="25.1"><title>2024-02-27</title></rect><rect fill="#549F57" height="4" rx="1" ry="1" width="4" x="53.199999999999996" y="30.5"><title>2024-02-28 228.95 mins</title></rect><rect fill="#549F57" height="4" rx="1" ry="1" width="4" x="53.199999999999996" y="35.9"><title>2024-02-29 184.22 mins</title></rect><rect fill="#549F57" height="4" rx="1" ry="1" width="4" x="53.199999999999996" y="41.300000000000004"><title>2024-03-01 297.2 mins</title></rect><rect fill="#64bb68" height="4" rx="1" ry="1" width="4" x="53.199999999999996" y="46.699999999999996"><title>2024-03-02 90.05 mins</title></rect><rect fill="#62ba67" height="4" rx="1" ry="1" width="4" x="53.199999999999996" y="52.1"><title>2024-03-03 110.83 mins</title></rect><text fill="#000000" style="font-size:2.5px; font-family:Arial" x="58.599999999999994" y="18.3">Mar</text><rect fill="#60b764" height="4" rx="1" ry="1" width="4" x="58.599999999999994" y="19.7"><title>2024-03-04 153.17 mins</title></rect><rect fill="#a7e5a9" height="4" rx="1" ry="1" width="4" x="58.599999999999994" y="25.1"><title>2024-03-05 19.18 mins</title></rect><rect fill="#a8e5aa" height="4" rx="1" ry="1" width="4" x="58.599999999999994" y="30.5"><title>2024-03-06 15.0 mins</title></rect><rect fill="#60b764" height="4" rx="1" ry="1" width="4" x="58.599999999999994" y="35.9"><title>2024-03-07 157.23 mins</title></rect><rect fill="#549F57" height="4" rx="1" ry="1" width="4" x="58.599999999999994" y="41.300000000000004"><title>2024-03-08 306.88 mins</title></rect><rect fill="#549F57" height="4" rx="1" ry="1" width="4" x="58.599999999999994" y="46.699999999999996"><title>2024-03-09 281.9 mins</title></rect><rect fill="#549F57" height="4" rx="1" ry="1" width="4" x="58.599999999999994" y="52.1"><title>2024-03-10 306.33 mins</title></rect><rect fill="#60b765" height="4" rx="1" ry="1" width="4" x="63.99999999999999" y="19.7"><title>2024-03-11 151.45 mins</title></rect><rect fill="#549F57" height="4" rx="1" ry="1" width="4" x="63.99999999999999" y="25.1"><title>2024-03-12 358.12 mins</title></rect><rect fill="#62b966" height="4" rx="1" ry="1" width="4" x="63.99999999999999" y="30.5"><title>2024-03-13 122.9 mins</title></rect><rect fill="#5fb663" height="4" rx="1" ry="1" width="4" x="63.99999999999999" y="35.9"><title>2024-03-14 173.87 mins</title></rect><rect fill="#61b966" height="4" rx="1" ry="1" width="4" x="63.99999999999999" y="41.300000000000004"><title>2024-03-15 131.98 mins</title></rect><rect fill="#5fb764" height="4" rx="1" ry="1" width="4" x="63.99999999999999" y="46.699999999999996"><title>2024-03-16 161.62 mins</title></rect><rect fill="#549F57" height="4" rx="1" ry="1" width="4" x="63.99999999999999" y="52.1"><title>2024-03-17 232.33 mins</title></rect><rect fill="#549F57" height="4" rx="1" ry="1" width="4" x="69.39999999999999" y="19.7"><title>2024-03-18 205.9 mins</title></rect><rect fill="#549F57" height="4" rx="1" ry="1" width="4" x="69.39999999999999" y="25.1"><title>2024-03-19 184.4 mins</title></rect><rect fill="#63bb67" height="4" rx="1" ry="1" width="4" x="69.39999999999999" y="30.5"><title>2024-03-20 104.32 mins</title></rect><rect fill="#549F57" height="4" rx="1" ry="1" width="4" x="69.39999999999999" y="35.9"><title>2024-03-21 225.77 mins</title></rect><rect fill="#549F57" height="4" rx="1" ry="1" width="4" x="69.39999999999999" y="41.300000000000004"><title>2024-03-22 287.25 mins</title></rect><rect fill="#549F57" height="4" rx="1" ry="1" width="4" x="69.39999999999999" y="46.699999999999996"><title>2024-03-23 280.72 mins</title></rect><rect fill="#64bc69" height="4" rx="1" ry="1" width="4" x="69.39999999999999" y="52.1"><title>2024-03-24 84.07 mins</title></rect><rect fill="#549F57" height="4" rx="1" ry="1" width="4" x="74.8" y="19.7"><title>2024-03-25 336.12 mins</title></rect><rect fill="#a0e1a2" height="4" rx="1" ry="1" width="4" x="74.8" y="25.1"><title>2024-03-26 50.83 mins</title></rect><rect fill="#549F57" height="4" rx="1" ry="1" width="4" x="74.8" y="30.5"><title>2024-03-27 272.75 mins</title></rect><rect fill="#a1e2a3" height="4" rx="1" ry="1" width="4" x="74.8" y="35.9"><title>2024-03-28 46.38 mins</title></rect><rect fill="#a8e5aa" height="4" rx="1" ry="1" width="4" x="74.8" y="41.300000000000004"><title>2024-03-29 18.05 mins</title></rect><rect fill="#549F57" height="4" rx="1" ry="1" width="4" x="74.8" y="46.699999999999996"><title>2024-03-30 290.38 mins</title></rect><rect fill="#a3e3a5" height="4" rx="1" ry="1" width="4" x="74.8" y="52.1"><title>2024-03-31 37.27 mins</title></rect><text fill="#000000" style="font-size:2.5px; font-family:Arial" x="80.2" y="18.3">Apr</text><rect fill="#549F57" height="4" rx="1" ry="1" width="4" x="80.2" y="19.7"><title>2024-04-01 265.85 mins</title></rect><rect fill="#64bc69" height="4" rx="1" ry="1" width="4" x="80.2" y="25.1"><title>2024-04-02 80.57 mins</title></rect><rect fill="#549F57" height="4" rx="1" ry="1" width="4" x="80.2" y="30.5"><title>2024-04-03 247.58 mins</title></rect><rect fill="#62ba67" height="4" rx="1" ry="1" width="4" x="80.2" y="35.9"><title>2024-04-04 117.33 mins</title></rect><rect fill="#5fb663" height="4" rx="1" ry="1" width="4" x="80.2" y="41.300000000000004"><title>2024-04-05 177.02 mins</title></rect><rect fill="#62ba67" height="4" rx="1" ry="1" width="4" x="80.2" y="46.699999999999996"><title>2024-04-06 118.52 mins</title></rect><rect fill="#62ba67" height="4" rx="1" ry="1" width="4" x="80.2" y="52.1"><title>2024-04-07 116.72 mins</title></rect><rect fill="#64bc69" height="4" rx="1" ry="1" width="4" x="85.60000000000001" y="19.7"><title>2024-04-08 80.12 mins</title></rect><rect fill="#549F57" height="4" rx="1" ry="1" width="4" x="85.60000000000001" y="25.1"><title>2024-04-09 232.75 mins</title></rect><rect fill="#a8e5aa" height="4" rx="1" ry="1" width="4" x="85.60000000000001" y="30.5"><title>2024-04-10 14.77 mins</title></rect><rect fill="#64bb68" height="4" rx="1" ry="1" width="4" x="85.60000000000001" y="35.9"><title>2024-04-11 89.58 mins</title></rect><rect fill="#549F57" height="4" rx="1" ry="1" width="4" x="85.60000000000001" y="41.300000000000004"><title>2024-04-12 202.23 mins</title></rect><rect fill="#a8e5aa" height="4" rx="1" ry="1" width="4" x="85.60000000000001" y="46.699999999999996"><title>2024-04-13 16.35 mins</title></rect><rect fill="#9de0a0" height="4" rx="1" ry="1" width="4" x="85.60000000000001" y="52.1"><title>2024-04-14 61.28 mins</title></rect><rect fill="#a3e3a5" height="4" rx="1" ry="1" width="4" x="91.00000000000001" y="19.7"><title>2024-04-15 37.12 mins</title></rect><rect fill="#9fe1a1" height="4" rx="1" ry="1" width="4" x="91.00000000000001" y="25.1"><title>2024-04-16 55.27 mins</title></rect><rect fill="#abe6ad" height="4" rx="1" ry="1" width="4" x="91.00000000000001" y="30.5"><title>2024-04-17 5.4 mins</title></rect><rect fill="#549F57" height="4" rx="1" ry="1" width="4" x="91.00000000000001" y="35.9"><title>2024-04-18 185.88 mins</title></rect><rect fill="#549F57" height="4" rx="1" ry="1" width="4" x="91.00000000000001" y="41.300000000000004"><title>2024-04-19 243.82 mins</title></rect><rect fill="#63bb67" height="4" rx="1" ry="1" width="4" x="91.00000000000001" y="46.699999999999996"><title>2024-04-20 103.1 mins</title></rect><rect fill="#64bb68" height="4" rx="1" ry="1" width="4" x="91.00000000000001" y="52.1"><title>2024-04-21 91.5 mins</title></rect><rect fill="#60b764" height="4" rx="1" ry="1" width="4" x="96.40000000000002" y="19.7"><title>2024-04-22 157.85 mins</title></rect><rect fill="#549F57" height="4" rx="1" ry="1" width="4" x="96.40000000000002" y="25.1"><title>2024-04-23 214.3 mins</title></rect><rect fill="#549F57" height="4" rx="1" ry="1" width="4" x="96.40000000000002" y="30.5"><title>2024-04-24 213.98 mins</title></rect><rect fill="#5fb663" height="4" rx="1" ry="1" width="4" x="96.40000000000002" y="35.9"><title>2024-04-25 174.07 mins</title></rect><rect fill="#9fe1a1" height="4" rx="1" ry="1" width="4" x="96.40000000000002" y="41.300000000000004"><title>2024-04-26 53.28 mins</title></rect><rect fill="#549F57" height="4" rx="1" ry="1" width="4" x="96.40000000000002" y="46.699999999999996"><title>2024-04-27 211.12 mins</title></rect><rect fill="#549F57" height="4" rx="1" ry="1" width="4" x="96.40000000000002" y="52.1"><title>2024-04-28 215.27 mins</title></rect><rect fill="#5eb663" height="4" rx="1" ry="1" width="4" x="101.80000000000003" y="19.7"><title>2024-04-29 180.65 mins</title></rect><rect fill="#549F57" height="4" rx="1" ry="1" width="4" x="101.80000000000003" y="25.1"><title>2024-04-30 318.52 mins</title></rect><rect fill="#549F57" height="4" rx="1" ry="1" width="4" x="101.80000000000003" y="30.5"><title>2024-05-01 245.87 mins</title></rect><rect fill="#62ba67" height="4" rx="1" ry="1" width="4" x="101.80000000000003" y="35.9"><title>2024-05-02 118.88 mins</title></rect><rect fill="#99de9c" height="4" rx="1" ry="1" width="4" x="101.80000000000003" y="41.300000000000004"><title>2024-05-03 78.93 mins</title></rect><rect fill="#549F57" height="4" rx="1" ry="1" width="4" x="101.80000000000003" y="46.699999999999996"><title>2024-05-04 229.57 mins</title></rect><rect fill="#60b865" height="4" rx="1" ry="1" width="4" x="101.80000000000003" y="52.1"><title>2024-05-05 145.28 mins</title></rect><text fill="#000000" style="font-size:2.5px; font-family:Arial" x="107.20000000000003" y="18.3">May</text><rect fill="#549F57" height="4" rx="1" ry="1" width="4" x="107.20000000000003" y="19.7"><title>2024-05-06 198.55 mins</title></rect><rect fill="#549F57" height="4" rx="1" ry="1" width="4" x="107.20000000000003" y="25.1"><title>2024-05-07 185.15 mins</title></rect><rect fill="#5eb563" height="4" rx="1" ry="1" width="4" x="107.20000000000003" y="30.5"><title>2024-05-08 183.6 mins</title></rect><rect fill="#5eb663" height="4" rx="1" ry="1" width="4" x="107.20000000000003" y="35.9"><title>2024-05-09 180.38 mins</title></rect><rect fill="#549F57" height="4" rx="1" ry="1" width="4" x="107.20000000000003" y="41.300000000000004"><title>2024-05-10 226.0 mins</title></rect><rect fill="#549F57" height="4" rx="1" ry="1" width="4" x="107.20000000000003" y="46.699999999999996"><title>2024-05-11 212.1 mins</title></rect><rect fill="#99de9b" height="4" rx="1" ry="1" width="4" x="107.20000000000003" y="52.1"><title>2024-05-12 79.73 mins</title></rect><rect fill="#9bdf9d" height="4" rx="1" ry="1" width="4" x="112.60000000000004" y="19.7"><title>2024-05-13 72.6 mins</title></rect><rect fill="#549F57" height="4" rx="1" ry="1" width="4" x="112.60000000000004" y="25.1"><title>2024-05-14 318.15 mins</title></rect><rect fill="#64bc69" height="4" rx="1" ry="1" width="4" x="112.60000000000004" y="30.5"><title>2024-05-15 86.63 mins</title></rect><rect fill="#9fe1a2" height="4" rx="1" ry="1" width="4" x="112.60000000000004" y="35.9"><title>2024-05-16 52.27 mins</title></rect><rect fill="#ace7ae" height="4" rx="1" ry="1" width="4" x="112.60000000000004" y="41.300000000000004"><title>2024-05-17 1.37 mins</title></rect><rect fill="#64bc69" height="4" rx="1" ry="1" width="4" x="112.60000000000004" y="46.699999999999996"><title>2024-05-18 85.88 mins</title></rect><rect fill="#62ba67" height="4" rx="1" ry="1" width="4" x="112.60000000000004" y="52.1"><title>2024-05-19 112.17 mins</title></rect><rect fill="#63bb68" height="4" rx="1" ry="1" width="4" x="118.00000000000004" y="19.7"><title>2024-05-20 102.45 mins</title></rect><rect fill="#a0e2a3" height="4" rx="1" ry="1" width="4" x="118.00000000000004" y="25.1"><title>2024-05-21 47.72 mins</title></rect><rect fill="#9ee0a0" height="4" rx="1" ry="1" width="4" x="118.00000000000004" y="30.5"><title>2024-05-22 58.23 mins</title></rect><rect fill="#9ade9c" height="4" rx="1" ry="1" width="4" x="118.00000000000004" y="35.9"><title>2024-05-23 75.05 mins</title></rect><rect fill="#9ade9c" height="4" rx="1" ry="1" width="4" x="118.00000000000004" y="41.300000000000004"><title>2024-05-24 75.73 mins</title></rect><rect fill="#a4e3a6" height="4" rx="1" ry="1" width="4" x="118.00000000000004" y="46.699999999999996"><title>2024-05-25 34.27 mins</title></rect><rect fill="#aae6ac" height="4" rx="1" ry="1" width="4" x="118.00000000000004" y="52.1"><title>2024-05-26 6.75 mins</title></rect><rect fill="#a0e1a2" height="4" rx="1" ry="1" width="4" x="123.40000000000005" y="19.7"><title>2024-05-27 48.98 mins</title></rect><rect fill="#aae6ac" height="4" rx="1" ry="1" width="4" x="123.40000000000005" y="25.1"><title>2024-05-28 7.38 mins</title></rect><rect fill="#9de09f" height="4" rx="1" ry="1" width="4" x="123.40000000000005" y="30.5"><title>2024-05-29 64.5 mins</title></rect><rect fill="#9cdf9e" height="4" rx="1" ry="1" width="4" x="123.40000000000005" y="35.9"><title>2024-05-30 68.12 mins</title></rect><rect fill="#a9e6ab" height="4" rx="1" ry="1" width="4" x="123.40000000000005" y="41.300000000000004"><title>2024-05-31 11.22 mins</title></rect><rect fill="#549F57" height="4" rx="1" ry="1" width="4" x="123.40000000000005" y="46.699999999999996"><title>2024-06-01 191.9 mins</title></rect><rect fill="#9ee0a0" height="4" rx="1" ry="1" width="4" x="123.40000000000005" y="52.1"><title>2024-06-02 57.5 mins</title></rect><text fill="#000000" style="font-size:2.5px; font-family:Arial" x="128.80000000000004" y="18.3">Jun</text><rect fill="#5fb764" height="4" rx="1" ry="1" width="4" x="128.80000000000004" y="19.7"><title>2024-06-03 163.88 mins</title></rect><rect fill="#9cdf9e" height="4" rx="1" ry="1" width="4" x="128.80000000000004" y="25.1"><title>2024-06-04 68.38 mins</title></rect><rect fill="#a4e3a6" height="4" rx="1" ry="1" width="4" x="128.80000000000004" y="30.5"><title>2024-06-05 34.9 mins</title></rect><rect fill="#9fe1a2" height="4" rx="1" ry="1" width="4" x="128.80000000000004" y="35.9"><title>2024-06-06 52.7 mins</title></rect><rect fill="#a8e5aa" height="4" rx="1" ry="1" width="4" x="128.80000000000004" y="41.300000000000004"><title>2024-06-07 16.82 mins</title></rect><rect fill="#62ba67" height="4" rx="1" ry="1" width="4" x="128.80000000000004" y="46.699999999999996"><title>2024-06-08 112.77 mins</title></rect><rect fill="#a8e5aa" height="4" rx="1" ry="1" width="4" x="128.80000000000004" y="52.1"><title>2024-06-09 15.03 mins</title></rect><rect fill="#63bb68" height="4" rx="1" ry="1" width="4" x="134.20000000000005" y="19.7"><title>2024-06-10 95.28 mins</title></rect><rect fill="#62b966" height="4" rx="1" ry="1" width="4" x="134.20000000000005" y="25.1"><title>2024-06-11 124.05 mins</title></rect><rect fill="#9de09f" height="4" rx="1" ry="1" width="4" x="134.20000000000005" y="30.5"><title>2024-06-12 62.63 mins</title></rect><rect fill="#63bb68" height="4" rx="1" ry="1" width="4" x="134.20000000000005" y="35.9"><title>2024-06-13 97.22 mins</title></rect><rect fill="#63bb68" height="4" rx="1" ry="1" width="4" x="134.20000000000005" y="41.300000000000004"><title>2024-06-14 99.1 mins</title></rect><rect fill="#9fe1a1" height="4" rx="1" ry="1" width="4" x="134.20000000000005" y="46.699999999999996"><title>2024-06-15 53.13 mins</title></rect><rect fill="#9ee0a0" height="4" rx="1" ry="1" width="4" x="134.20000000000005" y="52.1"><title>2024-06-16 59.98 mins</title></rect><rect fill="#62ba67" height="4" rx="1" ry="1" width="4" x="139.60000000000005" y="19.7"><title>2024-06-17 116.17 mins</title></rect><rect fill="#64bc69" height="4" rx="1" ry="1" width="4" x="139.60000000000005" y="25.1"><title>2024-06-18 86.6 mins</title></rect><rect fill="#a4e3a6" height="4" rx="1" ry="1" width="4" x="139.60000000000005" y="30.5"><title>2024-06-19 34.65 mins</title></rect><rect fill="#a2e2a4" height="4" rx="1" ry="1" width="4" x="139.60000000000005" y="35.9"><title>2024-06-20 40.68 mins</title></rect><rect fill="#9ee0a0" height="4" rx="1" ry="1" width="4" x="139.60000000000005" y="41.300000000000004"><title>2024-06-21 60.12 mins</title></rect><rect fill="#63bb68" height="4" rx="1" ry="1" width="4" x="139.60000000000005" y="46.699999999999996"><title>2024-06-22 99.22 mins</title></rect><rect fill="#5fb764" height="4" rx="1" ry="1" width="4" x="139.60000000000005" y="52.1"><title>2024-06-23 165.73 mins</title></rect><rect fill="#a6e4a8" height="4" rx="1" ry="1" width="4" x="145.00000000000006" y="19.7"><title>2024-06-24 24.33 mins</title></rect><rect fill="#9bdf9d" height="4" rx="1" ry="1" width="4" x="145.00000000000006" y="25.1"><title>2024-06-25 72.78 mins</title></rect><rect fill="#a4e4a7" height="4" rx="1" ry="1" width="4" x="145.00000000000006" y="30.5"><title>2024-06-26 31.4 mins</title></rect><rect fill="#a3e3a5" height="4" rx="1" ry="1" width="4" x="145.00000000000006" y="35.9"><title>2024-06-27 37.13 mins</title></rect><rect fill="#a9e6ab" height="4" rx="1" ry="1" width="4" x="145.00000000000006" y="41.300000000000004"><title>2024-06-28 13.47 mins</title></rect><rect fill="#abe6ad" height="4" rx="1" ry="1" width="4" x="145.00000000000006" y="46.699999999999996"><title>2024-06-29 5.0 mins</title></rect><rect fill="#abe7ad" height="4" rx="1" ry="1" width="4" x="145.00000000000006" y="52.1"><title>2024-06-30 2.62 mins</title></rect><text fill="#000000" style="font-size:2.5px; font-family:Arial" x="150.40000000000006" y="18.3">Jul</text><rect fill="#aae6ac" height="4" rx="1" ry="1" width="4" x="150.40000000000006" y="19.7"><title>2024-07-01 7.9 mins</title></rect><rect fill="#5fb663" height="4" rx="1" ry="1" width="4" x="150.40000000000006" y="25.1"><title>2024-07-02 178.67 mins</title></rect><rect fill="#a3e3a6" height="4" rx="1" ry="1" width="4" x="150.40000000000006" y="30.5"><title>2024-07-03 35.65 mins</title></rect><rect fill="#62ba67" height="4" rx="1" ry="1" width="4" x="150.40000000000006" y="35.9"><title>2024-07-04 114.7 mins</title></rect><rect fill="#aae6ac" height="4" rx="1" ry="1" width="4" x="150.40000000000006" y="41.300000000000004"><title>2024-07-05 9.37 mins</title></rect><rect fill="#61b966" height="4" rx="1" ry="1" width="4" x="150.40000000000006" y="46.699999999999996"><title>2024-07-06 134.27 mins</title></rect><rect fill="#aae6ac" height="4" rx="1" ry="1" width="4" x="150.40000000000006" y="52.1"><title>2024-07-07 7.23 mins</title></rect><rect fill="#63bb68" height="4" rx="1" ry="1" width="4" x="155.80000000000007" y="19.7"><title>2024-07-08 97.37 mins</title></rect><rect fill="#a6e4a8" height="4" rx="1" ry="1" width="4" x="155.80000000000007" y="25.1"><title>2024-07-09 25.82 mins</title></rect><rect fill="#9fe1a1" height="4" rx="1" ry="1" width="4" x="155.80000000000007" y="30.5"><title>2024-07-10 54.22 mins</title></rect><rect fill="#64bc69" height="4" rx="1" ry="1" width="4" x="155.80000000000007" y="35.9"><title>2024-07-11 86.47 mins</title></rect><rect fill="#EBEDF0" height="4" rx="1" ry="1" width="4" x="155.80000000000007" y="41.300000000000004"><title>2024-07-12</title></rect><rect fill="#9de0a0" height="4" rx="1" ry="1" width="4" x="155.80000000000007" y="46.699999999999996"><title>2024-07-13 61.1 mins</title></rect><rect fill="#9ee0a0" height="4" rx="1" ry="1" width="4" x="155.80000000000007" y="52.1"><title>2024-07-14 59.63 mins</title></rect><rect fill="#a7e5a9" height="4" rx="1" ry="1" width="4" x="161.20000000000007" y="19.7"><title>2024-07-15 21.03 mins</title></rect><rect fill="#a7e5a9" height="4" rx="1" ry="1" width="4" x="161.20000000000007" y="25.1"><title>2024-07-16 22.15 mins</title></rect><rect fill="#549F57" height="4" rx="1" ry="1" width="4" x="161.20000000000007" y="30.5"><title>2024-07-17 254.03 mins</title></rect><rect fill="#aae6ac" height="4" rx="1" ry="1" width="4" x="161.20000000000007" y="35.9"><title>2024-07-18 8.07 mins</title></rect><rect fill="#a3e3a6" height="4" rx="1" ry="1" width="4" x="161.20000000000007" y="41.300000000000004"><title>2024-07-19 35.57 mins</title></rect><rect fill="#a9e6ab" height="4" rx="1" ry="1" width="4" x="161.20000000000007" y="46.699999999999996"><title>2024-07-20 12.52 mins</title></rect><rect fill="#a2e3a5" height="4" rx="1" ry="1" width="4" x="161.20000000000007" y="52.1"><title>2024-07-21 39.82 mins</title></rect><rect fill="#549F57" height="4" rx="1" ry="1" width="4" x="166.60000000000008" y="19.7"><title>2024-07-22 220.95 mins</title></rect><rect fill="#63bb67" height="4" rx="1" ry="1" width="4" x="166.60000000000008" y="25.1"><title>2024-07-23 103.58 mins</title></rect><rect fill="#abe7ad" height="4" rx="1" ry="1" width="4" x="166.60000000000008" y="30.5"><title>2024-07-24 4.62 mins</title></rect><rect fill="#a9e6ab" height="4" rx="1" ry="1" width="4" x="166.60000000000008" y="35.9"><title>2024-07-25 12.58 mins</title></rect><rect fill="#64bb68" height="4" rx="1" ry="1" width="4" x="166.60000000000008" y="41.300000000000004"><title>2024-07-26 90.77 mins</title></rect><rect fill="#9ee0a0" height="4" rx="1" ry="1" width="4" x="166.60000000000008" y="46.699999999999996"><title>2024-07-27 57.87 mins</title></rect><rect fill="#62ba67" height="4" rx="1" ry="1" width="4" x="166.60000000000008" y="52.1"><title>2024-07-28 113.53 mins</title></rect><rect fill="#9ee0a0" height="4" rx="1" ry="1" width="4" x="172.00000000000009" y="19.7"><title>2024-07-29 58.37 mins</title></rect><rect fill="#61b966" height="4" rx="1" ry="1" width="4" x="172.00000000000009" y="25.1"><title>2024-07-30 131.58 mins</title></rect><rect fill="#aae6ac" height="4" rx="1" ry="1" width="4" x="172.00000000000009" y="30.5"><title>2024-07-31 9.83 mins</title></rect><rect fill="#63bb67" height="4" rx="1" ry="1" width="4" x="172.00000000000009" y="35.9"><title>2024-08-01 103.1 mins</title></rect><rect fill="#abe7ad" height="4" rx="1" ry="1" width="4" x="172.00000000000009" y="41.300000000000004"><title>2024-08-02 2.3 mins</title></rect><rect fill="#EBEDF0" height="4" rx="1" ry="1" width="4" x="172.00000000000009" y="46.699999999999996"><title>2024-08-03</title></rect><rect fill="#aae6ac" height="4" rx="1" ry="1" width="4" x="172.00000000000009" y="52.1"><title>2024-08-04 7.73 mins</title></rect><text fill="#000000" style="font-size:2.5px; font-family:Arial" x="177.4000000000001" y="18.3">Aug</text><rect fill="#61b865" height="4" rx="1" ry="1" width="4" x="177.4000000000001" y="19.7"><title>2024-08-05 140.28 mins</title></rect><rect fill="#a8e5aa" height="4" rx="1" ry="1" width="4" x="177.4000000000001" y="25.1"><title>2024-08-06 15.73 mins</title></rect><rect fill="#64bb68" height="4" rx="1" ry="1" width="4" x="177.4000000000001" y="30.5"><title>2024-08-07 89.52 mins</title></rect><rect fill="#a6e4a8" height="4" rx="1" ry="1" width="4" x="177.4000000000001" y="35.9"><title>2024-08-08 23.23 mins</title></rect><rect fill="#aae6ac" height="4" rx="1" ry="1" width="4" x="177.4000000000001" y="41.300000000000004"><title>2024-08-09 7.35 mins</title></rect><rect fill="#a5e4a8" height="4" rx="1" ry="1" width="4" x="177.4000000000001" y="46.699999999999996"><title>2024-08-10 26.97 mins</title></rect><rect fill="#EBEDF0" height="4" rx="1" ry="1" width="4" x="177.4000000000001" y="52.1"><title>2024-08-11</title></rect><rect fill="#a4e3a6" height="4" rx="1" ry="1" width="4" x="182.8000000000001" y="19.7"><title>2024-08-12 32.1 mins</title></rect><rect fill="#a2e2a4" height="4" rx="1" ry="1" width="4" x="182.8000000000001" y="25.1"><title>2024-08-13 42.27 mins</title></rect><rect fill="#EBEDF0" height="4" rx="1" ry="1" width="4" x="182.8000000000001" y="30.5"><title>2024-08-14</title></rect><rect fill="#a7e5aa" height="4" rx="1" ry="1" width="4" x="182.8000000000001" y="35.9"><title>2024-08-15 18.72 mins</title></rect><rect fill="#9de09f" height="4" rx="1" ry="1" width="4" x="182.8000000000001" y="41.300000000000004"><title>2024-08-16 64.05 mins</title></rect><rect fill="#a1e2a3" height="4" rx="1" ry="1" width="4" x="182.8000000000001" y="46.699999999999996"><title>2024-08-17 45.88 mins</title></rect><rect fill="#9ade9d" height="4" rx="1" ry="1" width="4" x="182.8000000000001" y="52.1"><title>2024-08-18 74.57 mins</title></rect><rect fill="#549F57" height="4" rx="1" ry="1" width="4" x="188.2000000000001" y="19.7"><title>2024-08-19 223.45 mins</title></rect><rect fill="#5fb764" height="4" rx="1" ry="1" width="4" x="188.2000000000001" y="25.1"><title>2024-08-20 161.87 mins</title></rect><rect fill="#9ee0a0" height="4" rx="1" ry="1" width="4" x="188.2000000000001" y="30.5"><title>2024-08-21 59.97 mins</title></rect><rect fill="#549F57" height="4" rx="1" ry="1" width="4" x="188.2000000000001" y="35.9"><title>2024-08-22 271.72 mins</title></rect><rect fill="#549F57" height="4" rx="1" ry="1" width="4" x="188.2000000000001" y="41.300000000000004"><title>2024-08-23 289.27 mins</title></rect><rect fill="#63ba67" height="4" rx="1" ry="1" width="4" x="188.2000000000001" y="46.699999999999996"><title>2024-08-24 105.17 mins</title></rect><rect fill="#549F57" height="4" rx="1" ry="1" width="4" x="188.2000000000001" y="52.1"><title>2024-08-25 306.57 mins</title></rect><rect fill="#a8e5aa" height="4" rx="1" ry="1" width="4" x="193.6000000000001" y="19.7"><title>2024-08-26 17.7 mins</title></rect><rect fill="#549F57" height="4" rx="1" ry="1" width="4" x="193.6000000000001" y="25.1"><title>2024-08-27 423.98 mins</title></rect><rect fill="#aae6ac" height="4" rx="1" ry="1" width="4" x="193.6000000000001" y="30.5"><title>2024-08-28 6.83 mins</title></rect><rect fill="#64bc69" height="4" rx="1" ry="1" width="4" x="193.6000000000001" y="35.9"><title>2024-08-29 80.75 mins</title></rect><rect fill="#9cdf9f" height="4" rx="1" ry="1" width="4" x="193.6000000000001" y="41.300000000000004"><title>2024-08-30 65.92 mins</title></rect><rect fill="#a8e5aa" height="4" rx="1" ry="1" width="4" x="193.6000000000001" y="46.699999999999996"><title>2024-08-31 14.83 mins</title></rect><rect fill="#9de09f" height="4" rx="1" ry="1" width="4" x="193.6000000000001" y="52.1"><title>2024-09-01 63.27 mins</title></rect><text fill="#000000" style="font-size:2.5px; font-family:Arial" x="199.0000000000001" y="18.3">Sep</text><rect fill="#549F57" height="4" rx="1" ry="1" width="4" x="199.0000000000001" y="19.7"><title>2024-09-02 253.68 mins</title></rect><rect fill="#62ba67" height="4" rx="1" ry="1" width="4" x="199.0000000000001" y="25.1"><title>2024-09-03 112.7 mins</title></rect><rect fill="#60b865" height="4" rx="1" ry="1" width="4" x="199.0000000000001" y="30.5"><title>2024-09-04 146.75 mins</title></rect><rect fill="#a8e5aa" height="4" rx="1" ry="1" width="4" x="199.0000000000001" y="35.9"><title>2024-09-05 15.52 mins</title></rect><rect fill="#549F57" height="4" rx="1" ry="1" width="4" x="199.0000000000001" y="41.300000000000004"><title>2024-09-06 187.52 mins</title></rect><rect fill="#549F57" height="4" rx="1" ry="1" width="4" x="199.0000000000001" y="46.699999999999996"><title>2024-09-07 231.2 mins</title></rect><rect fill="#a5e4a7" height="4" rx="1" ry="1" width="4" x="199.0000000000001" y="52.1"><title>2024-09-08 30.13 mins</title></rect><rect fill="#62b966" height="4" rx="1" ry="1" width="4" x="204.40000000000012" y="19.7"><title>2024-09-09 125.68 mins</title></rect><rect fill="#61b966" height="4" rx="1" ry="1" width="4" x="204.40000000000012" y="25.1"><title>2024-09-10 134.0 mins</title></rect><rect fill="#62b966" height="4" rx="1" ry="1" width="4" x="204.40000000000012" y="30.5"><title>2024-09-11 123.6 mins</title></rect><rect fill="#64bc69" height="4" rx="1" ry="1" width="4" x="204.40000000000012" y="35.9"><title>2024-09-12 85.27 mins</title></rect><rect fill="#549F57" height="4" rx="1" ry="1" width="4" x="204.40000000000012" y="41.300000000000004"><title>2024-09-13 451.25 mins</title></rect><rect fill="#63bb68" height="4" rx="1" ry="1" width="4" x="204.40000000000012" y="46.699999999999996"><title>2024-09-14 100.23 mins</title></rect><rect fill="#9bdf9e" height="4" rx="1" ry="1" width="4" x="204.40000000000012" y="52.1"><title>2024-09-15 69.63 mins</title></rect><rect fill="#64bc69" height="4" rx="1" ry="1" width="4" x="209.80000000000013" y="19.7"><title>2024-09-16 80.03 mins</title></rect><rect fill="#60b765" height="4" rx="1" ry="1" width="4" x="209.80000000000013" y="25.1"><title>2024-09-17 151.73 mins</title></rect><rect fill="#9ade9d" height="4" rx="1" ry="1" width="4" x="209.80000000000013" y="30.5"><title>2024-09-18 74.23 mins</title></rect><rect fill="#63ba67" height="4" rx="1" ry="1" width="4" x="209.80000000000013" y="35.9"><title>2024-09-19 105.53 mins</title></rect><rect fill="#99de9b" height="4" rx="1" ry="1" width="4" x="209.80000000000013" y="41.300000000000004"><title>2024-09-20 79.9 mins</title></rect><rect fill="#63ba67" height="4" rx="1" ry="1" width="4" x="209.80000000000013" y="46.699999999999996"><title>2024-09-21 105.88 mins</title></rect><rect fill="#a6e4a8" height="4" rx="1" ry="1" width="4" x="209.80000000000013" y="52.1"><title>2024-09-22 23.27 mins</title></rect><rect fill="#5fb764" height="4" rx="1" ry="1" width="4" x="215.20000000000013" y="19.7"><title>2024-09-23 165.98 mins</title></rect><rect fill="#a1e2a3" height="4" rx="1" ry="1" width="4" x="215.20000000000013" y="25.1"><title>2024-09-24 44.8 mins</title></rect><rect fill="#549F57" height="4" rx="1" ry="1" width="4" x="215.20000000000013" y="30.5"><title>2024-09-25 339.38 mins</title></rect><rect fill="#549F57" height="4" rx="1" ry="1" width="4" x="215.20000000000013" y="35.9"><title>2024-09-26 188.62 mins</title></rect><rect fill="#549F57" height="4" rx="1" ry="1" width="4" x="215.20000000000013" y="41.300000000000004"><title>2024-09-27 244.37 mins</title></rect><rect fill="#62ba67" height="4" rx="1" ry="1" width="4" x="215.20000000000013" y="46.699999999999996"><title>2024-09-28 112.5 mins</title></rect><rect fill="#60b764" height="4" rx="1" ry="1" width="4" x="215.20000000000013" y="52.1"><title>2024-09-29 159.7 mins</title></rect><rect fill="#60b764" height="4" rx="1" ry="1" width="4" x="220.60000000000014" y="19.7"><title>2024-09-30 160.33 mins</title></rect><rect fill="#a1e2a3" height="4" rx="1" ry="1" width="4" x="220.60000000000014" y="25.1"><title>2024-10-01 46.83 mins</title></rect><rect fill="#a3e3a5" height="4" rx="1" ry="1" width="4" x="220.60000000000014" y="30.5"><title>2024-10-02 38.1 mins</title></rect><rect fill="#549F57" height="4" rx="1" ry="1" width="4" x="220.60000000000014" y="35.9"><title>2024-10-03 287.37 mins</title></rect><rect fill="#a8e5aa" height="4" rx="1" ry="1" width="4" x="220.60000000000014" y="41.300000000000004"><title>2024-10-04 16.45 mins</title></rect><rect fill="#a4e4a7" height="4" rx="1" ry="1" width="4" x="220.60000000000014" y="46.699999999999996"><title>2024-10-05 31.38 mins</title></rect><rect fill="#61b966" height="4" rx="1" ry="1" width="4" x="220.60000000000014" y="52.1"><title>2024-10-06 130.53 mins</title></rect><text fill="#000000" style="font-size:2.5px; font-family:Arial" x="226.00000000000014" y="18.3">Oct</text><rect fill="#9ade9c" height="4" rx="1" ry="1" width="4" x="226.00000000000014" y="19.7"><title>2024-10-07 75.8 mins</title></rect><rect fill="#a6e4a8" height="4" rx="1" ry="1" width="4" x="226.00000000000014" y="25.1"><title>2024-10-08 25.48 mins</title></rect><rect fill="#9bdf9e" height="4" rx="1" ry="1" width="4" x="226.00000000000014" y="30.5"><title>2024-10-09 69.07 mins</title></rect><rect fill="#63ba67" height="4" rx="1" ry="1" width="4" x="226.00000000000014" y="35.9"><title>2024-10-10 107.05 mins</title></rect><rect fill="#9ee1a1" height="4" rx="1" ry="1" width="4" x="226.00000000000014" y="41.300000000000004"><title>2024-10-11 56.3 mins</title></rect><rect fill="#99de9c" height="4" rx="1" ry="1" width="4" x="226.00000000000014" y="46.699999999999996"><title>2024-10-12 78.15 mins</title></rect><rect fill="#60b764" height="4" rx="1" ry="1" width="4" x="226.00000000000014" y="52.1"><title>2024-10-13 155.98 mins</title></rect><rect fill="#9de0a0" height="4" rx="1" ry="1" width="4" x="231.40000000000015" y="19.7"><title>2024-10-14 60.93 mins</title></rect><rect fill="#99de9b" height="4" rx="1" ry="1" width="4" x="231.40000000000015" y="25.1"><title>2024-10-15 79.57 mins</title></rect><rect fill="#a4e3a6" height="4" rx="1" ry="1" width="4" x="231.40000000000015" y="30.5"><title>2024-10-16 32.18 mins</title></rect><rect fill="#9fe1a1" height="4" rx="1" ry="1" width="4" x="231.40000000000015" y="35.9"><title>2024-10-17 56.07 mins</title></rect><rect fill="#9bdf9d" height="4" rx="1" ry="1" width="4" x="231.40000000000015" y="41.300000000000004"><title>2024-10-18 71.13 mins</title></rect><rect fill="#a3e3a5" height="4" rx="1" ry="1" width="4" x="231.40000000000015" y="46.699999999999996"><title>2024-10-19 36.78 mins</title></rect><rect fill="#9cdf9f" height="4" rx="1" ry="1" width="4" x="231.40000000000015" y="52.1"><title>2024-10-20 65.9 mins</title></rect><rect fill="#63bb68" height="4" rx="1" ry="1" width="4" x="236.80000000000015" y="19.7"><title>2024-10-21 97.22 mins</title></rect><rect fill="#61b865" height="4" rx="1" ry="1" width="4" x="236.80000000000015" y="25.1"><title>2024-10-22 137.57 mins</title></rect><rect fill="#9de0a0" height="4" rx="1" ry="1" width="4" x="236.80000000000015" y="30.5"><title>2024-10-23 60.5 mins</title></rect><rect fill="#64bc69" height="4" rx="1" ry="1" width="4" x="236.80000000000015" y="35.9"><title>2024-10-24 82.3 mins</title></rect><rect fill="#a3e3a6" height="4" rx="1" ry="1" width="4" x="236.80000000000015" y="41.300000000000004"><title>2024-10-25 35.42 mins</title></rect><rect fill="#a2e2a4" height="4" rx="1" ry="1" width="4" x="236.80000000000015" y="46.699999999999996"><title>2024-10-26 40.33 mins</title></rect><rect fill="#61b966" height="4" rx="1" ry="1" width="4" x="236.80000000000015" y="52.1"><title>2024-10-27 130.77 mins</title></rect><rect fill="#a3e3a5" height="4" rx="1" ry="1" width="4" x="242.20000000000016" y="19.7"><title>2024-10-28 37.0 mins</title></rect><rect fill="#a9e6ac" height="4" rx="1" ry="1" width="4" x="242.20000000000016" y="25.1"><title>2024-10-29 10.47 mins</title></rect><rect fill="#a9e6ab" height="4" rx="1" ry="1" width="4" x="242.20000000000016" y="30.5"><title>2024-10-30 11.68 mins</title></rect><rect fill="#a2e3a5" height="4" rx="1" ry="1" width="4" x="242.20000000000016" y="35.9"><title>2024-10-31 39.48 mins</title></rect><rect fill="#a9e6ac" height="4" rx="1" ry="1" width="4" x="242.20000000000016" y="41.300000000000004"><title>2024-11-01 10.37 mins</title></rect><rect fill="#9de09f" height="4" rx="1" ry="1" width="4" x="242.20000000000016" y="46.699999999999996"><title>2024-11-02 61.72 mins</title></rect><rect fill="#5fb764" height="4" rx="1" ry="1" width="4" x="242.20000000000016" y="52.1"><title>2024-11-03 163.65 mins</title></rect><text fill="#000000" style="font-size:2.5px; font-family:Arial" x="247.60000000000016" y="18.3">Nov</text><rect fill="#a3e3a5" height="4" rx="1" ry="1" width="4" x="247.60000000000016" y="19.7"><title>2024-11-04 36.85 mins</title></rect><rect fill="#549F57" height="4" rx="1" ry="1" width="4" x="247.60000000000016" y="25.1"><title>2024-11-05 319.22 mins</title></rect><rect fill="#a8e5aa" height="4" rx="1" ry="1" width="4" x="247.60000000000016" y="30.5"><title>2024-11-06 15.98 mins</title></rect><rect fill="#a1e2a3" height="4" rx="1" ry="1" width="4" x="247.60000000000016" y="35.9"><title>2024-11-07 46.18 mins</title></rect><rect fill="#aae6ac" height="4" rx="1" ry="1" width="4" x="247.60000000000016" y="41.300000000000004"><title>2024-11-08 7.77 mins</title></rect><rect fill="#a9e5ab" height="4" rx="1" ry="1" width="4" x="247.60000000000016" y="46.699999999999996"><title>2024-11-09 14.15 mins</title></rect><rect fill="#a7e5a9" height="4" rx="1" ry="1" width="4" x="247.60000000000016" y="52.1"><title>2024-11-10 19.17 mins</title></rect><rect fill="#a4e3a6" height="4" rx="1" ry="1" width="4" x="253.00000000000017" y="19.7"><title>2024-11-11 34.32 mins</title></rect><rect fill="#a7e5aa" height="4" rx="1" ry="1" width="4" x="253.00000000000017" y="25.1"><title>2024-11-12 18.88 mins</title></rect><rect fill="#a4e3a6" height="4" rx="1" ry="1" width="4" x="253.00000000000017" y="30.5"><title>2024-11-13 33.98 mins</title></rect><rect fill="#EBEDF0" height="4" rx="1" ry="1" width="4" x="253.00000000000017" y="35.9"><title>2024-11-14</title></rect><rect fill="#EBEDF0" height="4" rx="1" ry="1" width="4" x="253.00000000000017" y="41.300000000000004"><title>2024-11-15</title></rect><rect fill="#EBEDF0" height="4" rx="1" ry="1" width="4" x="253.00000000000017" y="46.699999999999996"><title>2024-11-16</title></rect><rect fill="#EBEDF0" height="4" rx="1" ry="1" width="4" x="253.00000000000017" y="52.1"><title>2024-11-17</title></rect><rect fill="#EBEDF0" height="4" rx="1" ry="1" width="4" x="258.40000000000015" y="19.7"><title>2024-11-18</title></rect><rect fill="#EBEDF0" height="4" rx="1" ry="1" width="4" x="258.40000000000015" y="25.1"><title>2024-11-19</title></rect><rect fill="#EBEDF0" height="4" rx="1" ry="1" width="4" x="258.40000000000015" y="30.5"><title>2024-11-20</title></rect><rect fill="#EBEDF0" height="4" rx="1" ry="1" width="4" x="258.40000000000015" y="35.9"><title>2024-11-21</title></rect><rect fill="#EBEDF0" height="4" rx="1" ry="1" width="4" x="258.40000000000015" y="41.300000000000004"><title>2024-11-22</title></rect><rect fill="#EBEDF0" height="4" rx="1" ry="1" width="4" x="258.40000000000015" y="46.699999999999996"><title>2024-11-23</title></rect><rect fill="#EBEDF0" height="4" rx="1" ry="1" width="4" x="258.40000000000015" y="52.1"><title>2024-11-24</title></rect><rect fill="#EBEDF0" height="4" rx="1" ry="1" width="4" x="263.8000000000001" y="19.7"><title>2024-11-25</title></rect><rect fill="#EBEDF0" height="4" rx="1" ry="1" width="4" x="263.8000000000001" y="25.1"><title>2024-11-26</title></rect><rect fill="#EBEDF0" height="4" rx="1" ry="1" width="4" x="263.8000000000001" y="30.5"><title>2024-11-27</title></rect><rect fill="#EBEDF0" height="4" rx="1" ry="1" width="4" x="263.8000000000001" y="35.9"><title>2024-11-28</title></rect><rect fill="#EBEDF0" height="4" rx="1" ry="1" width="4" x="263.8000000000001" y="41.300000000000004"><title>2024-11-29</title></rect><rect fill="#EBEDF0" height="4" rx="1" ry="1" width="4" x="263.8000000000001" y="46.699999999999996"><title>2024-11-30</title></rect><rect fill="#EBEDF0" height="4" rx="1" ry="1" width="4" x="263.8000000000001" y="52.1"><title>2024-12-01</title></rect><text fill="#000000" style="font-size:2.5px; font-family:Arial" x="269.2000000000001" y="18.3">Dec</text><rect fill="#EBEDF0" height="4" rx="1" ry="1" width="4" x="269.2000000000001" y="19.7"><title>2024-12-02</title></rect><rect fill="#EBEDF0" height="4" rx="1" ry="1" width="4" x="269.2000000000001" y="25.1"><title>2024-12-03</title></rect><rect fill="#EBEDF0" height="4" rx="1" ry="1" width="4" x="269.2000000000001" y="30.5"><title>2024-12-04</title></rect><rect fill="#EBEDF0" height="4" rx="1" ry="1" width="4" x="269.2000000000001" y="35.9"><title>2024-12-05</title></rect><rect fill="#EBEDF0" height="4" rx="1" ry="1" width="4" x="269.2000000000001" y="41.300000000000004"><title>2024-12-06</title></rect><rect fill="#EBEDF0" height="4" rx="1" ry="1" width="4" x="269.2000000000001" y="46.699999999999996"><title>2024-12-07</title></rect><rect fill="#EBEDF0" height="4" rx="1" ry="1" width="4" x="269.2000000000001" y="52.1"><title>2024-12-08</title></rect><rect fill="#EBEDF0" height="4" rx="1" ry="1" width="4" x="274.6000000000001" y="19.7"><title>2024-12-09</title></rect><rect fill="#EBEDF0" height="4" rx="1" ry="1" width="4" x="274.6000000000001" y="25.1"><title>2024-12-10</title></rect><rect fill="#EBEDF0" height="4" rx="1" ry="1" width="4" x="274.6000000000001" y="30.5"><title>2024-12-11</title></rect><rect fill="#EBEDF0" height="4" rx="1" ry="1" width="4" x="274.6000000000001" y="35.9"><title>2024-12-12</title></rect><rect fill="#EBEDF0" height="4" rx="1" ry="1" width="4" x="274.6000000000001" y="41.300000000000004"><title>2024-12-13</title></rect><rect fill="#EBEDF0" height="4" rx="1" ry="1" width="4" x="274.6000000000001" y="46.699999999999996"><title>2024-12-14</title></rect><rect fill="#EBEDF0" height="4" rx="1" ry="1" width="4" x="274.6000000000001" y="52.1"><title>2024-12-15</title></rect><rect fill="#EBEDF0" height="4" rx="1" ry="1" width="4" x="280.00000000000006" y="19.7"><title>2024-12-16</title></rect><rect fill="#EBEDF0" height="4" rx="1" ry="1" width="4" x="280.00000000000006" y="25.1"><title>2024-12-17</title></rect><rect fill="#EBEDF0" height="4" rx="1" ry="1" width="4" x="280.00000000000006" y="30.5"><title>2024-12-18</title></rect><rect fill="#EBEDF0" height="4" rx="1" ry="1" width="4" x="280.00000000000006" y="35.9"><title>2024-12-19</title></rect><rect fill="#EBEDF0" height="4" rx="1" ry="1" width="4" x="280.00000000000006" y="41.300000000000004"><title>2024-12-20</title></rect><rect fill="#EBEDF0" height="4" rx="1" ry="1" width="4" x="280.00000000000006" y="46.699999999999996"><title>2024-12-21</title></rect><rect fill="#EBEDF0" height="4" rx="1" ry="1" width="4" x="280.00000000000006" y="52.1"><title>2024-12-22</title></rect><rect fill="#EBEDF0" height="4" rx="1" ry="1" width="4" x="285.40000000000003" y="19.7"><title>2024-12-23</title></rect><rect fill="#EBEDF0" height="4" rx="1" ry="1" width="4" x="285.40000000000003" y="25.1"><title>2024-12-24</title></rect><rect fill="#EBEDF0" height="4" rx="1" ry="1" width="4" x="285.40000000000003" y="30.5"><title>2024-12-25</title></rect><rect fill="#EBEDF0" height="4" rx="1" ry="1" width="4" x="285.40000000000003" y="35.9"><title>2024-12-26</title></rect><rect fill="#EBEDF0" height="4" rx="1" ry="1" width="4" x="285.40000000000003" y="41.300000000000004"><title>2024-12-27</title></rect><rect fill="#EBEDF0" height="4" rx="1" ry="1" width="4" x="285.40000000000003" y="46.699999999999996"><title>2024-12-28</title></rect><rect fill="#EBEDF0" height="4" rx="1" ry="1" width="4" x="285.40000000000003" y="52.1"><title>2024-12-29</title></rect><rect fill="#EBEDF0" height="4" rx="1" ry="1" width="4" x="290.8" y="19.7"><title>2024-12-30</title></rect><rect fill="#EBEDF0" height="4" rx="1" ry="1" width="4" x="290.8" y="25.1"><title>2024-12-31</title></rect></svg>